<?xml version="1.0" encoding="utf-8"?>
<!-- Generator: Adobe Illustrator 26.3.1, SVG Export Plug-In . SVG Version: 6.00 Build 0)  -->
<svg version="1.1" id="Layer_1" xmlns="http://www.w3.org/2000/svg" xmlns:xlink="http://www.w3.org/1999/xlink" x="0px" y="0px"
	 viewBox="0 0 696.9 214.8" style="enable-background:new 0 0 696.9 214.8;" xml:space="preserve">
<g>
	<polygon points="128.3,7.9 106.5,45.5 171.5,157.8 147.4,157.6 94.5,66.3 20.5,194.6 65.2,194.6 94.6,143.7 124,194.6 236,194.6 	
		"/>
	<polygon points="375.6,166.6 461,166.6 461,151 393.3,151 393.3,110.7 445.8,110.7 445.8,95.5 393.3,95.5 393.3,51.5 461,51.5 
		461,35.9 375.6,35.9 	"/>
	<path d="M354.4,125.1c0,3.1,0,6,0,8.9c0,2.7,0.1,5.3,0.2,7.5L277,36.1h-18.1v130.6h16.4V76.4c0-2.3,0-4.9,0-7.6s-0.1-4.9-0.1-7.2
		l76.2,103.9l0.7,1h18.7V35.9h-16.5v89.2H354.4z"/>
	<path d="M538.5,106.6l1-0.5c4.2-2.2,7.8-5.1,10.8-8.7c2.7-3.3,4.9-7.2,6.1-11.4c1.3-4,2-8.2,2-12.4c0.1-5.5-1-10.9-3.2-15.9
		c-2.1-4.6-5.3-8.7-9.3-12c-4.3-3.3-9.2-5.9-14.6-7.3c-6.1-1.7-12.6-2.6-19-2.6h-47.1v130.5h17.9v-53.8h28.7l31.8,53.8h20.9
		L530,110.2C533,109.5,535.8,108.2,538.5,106.6z M483.1,51.1h28.3c4.2,0,8.4,0.5,12.5,1.5c3.3,0.9,6.4,2.3,9.2,4.4
		c2.4,1.8,4.3,4.2,5.6,7c1.3,3.1,2.1,6.4,2,9.8c0,3.2-0.6,6.5-1.7,9.4c-1.1,2.8-2.8,5.4-5,7.5c-2.6,2.3-5.5,4-8.7,5
		c-4.3,1.3-8.7,2.1-13.1,2h-29V51.1z"/>
	<path d="M647.2,35.9l-32.7,92c-1.1,2.8-2.1,5.7-2.9,8.7c-0.9,2.9-1.8,5.5-2.6,7.8c0,0.1-0.1,0.4-0.1,0.5l-0.2-0.7
		c-0.7-2.3-1.6-5-2.4-7.8s-1.8-5.7-2.9-8.4l-32.9-92h-19.1l49.1,130.5h17.1l48.8-130.5C666.2,35.9,647.2,35.9,647.2,35.9z"/>
	<g>
		<path d="M683.2,135.9c-1.8-3.1-4.5-5.8-7.6-7.6c-3.2-1.8-6.6-2.6-10-2.6c-3.4,0-6.8,0.8-10,2.6s-5.8,4.2-7.6,7.6
			c-1.8,3.1-2.6,6.6-2.6,10.2s0.8,6.8,2.6,10.2c1.8,3.1,4.5,5.8,7.6,7.6s6.6,2.6,10.2,2.6c3.4,0,6.8-0.8,10.2-2.6
			c3.2-1.8,5.8-4.2,7.6-7.6c1.8-3.1,2.6-6.6,2.6-10.2C686.1,142.4,685.1,139,683.2,135.9z M679.8,154.2c-1.3,2.6-3.4,4.7-6,6
			c-2.6,1.6-5.2,2.1-8.1,2.1c-2.9,0-5.5-0.8-8.1-2.1c-2.6-1.6-4.7-3.4-6-6c-1.6-2.6-2.1-5.2-2.1-8.1s0.8-5.5,2.1-8.1
			c1.6-2.6,3.4-4.7,6-6c2.6-1.3,5.2-2.1,8.1-2.1c2.9,0,5.5,0.8,8.1,2.1c2.6,1.3,4.7,3.4,6,6c1.6,2.6,2.1,5.2,2.1,8.1
			C682.2,149,681.4,151.6,679.8,154.2z"/>
		<path d="M669.6,147.2L669.6,147.2c0.8-0.5,1.6-1.1,1.8-1.6c0.5-0.5,0.8-1.3,1.1-1.8c0.3-0.8,0.3-1.3,0.3-2.1
			c0-0.8-0.3-1.8-0.5-2.6c-0.3-0.8-0.8-1.6-1.6-2.1c-0.8-0.5-1.6-1-2.4-1.3c-1.1-0.3-2.1-0.5-3.2-0.5h-7.9v21.5h2.9v-8.9h4.7
			l5.2,8.9h3.4l-5.8-9.4C668.5,147.7,669,147.4,669.6,147.2z M660.4,138h4.7c0.8,0,1.3,0,2.1,0.3c0.5,0.3,1.1,0.3,1.6,0.8
			c0.5,0.3,0.8,0.8,1.1,1.1c0.3,0.5,0.3,1,0.3,1.6c0,0.5,0,1-0.3,1.6c-0.3,0.5-0.5,0.8-0.8,1.3c-0.5,0.3-0.8,0.8-1.6,0.8
			c-0.8,0.3-1.3,0.3-2.1,0.3h-4.7L660.4,138z"/>
	</g>
</g>
</svg>
